<?xml version="1.0" encoding="UTF-8" standalone="no"?>
<!-- Generator: visioncortex VTracer 0.6.12 -->

<svg
   version="1.1"
   width="600"
   height="600"
   viewBox="0 0 600 600"
   id="svg67"
   sodipodi:docname="kindlings-logo.svg"
   inkscape:version="1.4.4 (dcaf3e7, 2026-05-05)"
   xmlns:inkscape="http://www.inkscape.org/namespaces/inkscape"
   xmlns:sodipodi="http://sodipodi.sourceforge.net/DTD/sodipodi-0.dtd"
   xmlns="http://www.w3.org/2000/svg"
   xmlns:svg="http://www.w3.org/2000/svg">
  <sodipodi:namedview
     id="namedview67"
     pagecolor="#ffffff"
     bordercolor="#000000"
     borderopacity="0.25"
     inkscape:showpageshadow="2"
     inkscape:pageopacity="0.0"
     inkscape:pagecheckerboard="true"
     inkscape:deskcolor="#d1d1d1"
     inkscape:zoom="0.73662938"
     inkscape:cx="681.48246"
     inkscape:cy="342.77753"
     inkscape:window-width="3440"
     inkscape:window-height="1412"
     inkscape:window-x="1728"
     inkscape:window-y="0"
     inkscape:window-maximized="0"
     inkscape:current-layer="svg67"
     showborder="true"
     showguides="true">
    <sodipodi:guide
       position="600,0"
       orientation="-1,0"
       id="guide67"
       inkscape:locked="false"
       inkscape:label=""
       inkscape:color="rgb(0,134,229)" />
  </sodipodi:namedview>
  <defs
     id="defs55">
    <linearGradient
       id="g1"
       gradientUnits="userSpaceOnUse"
       x1="257.20001"
       y1="377.79999"
       x2="378.60001"
       y2="389.79999"
       gradientTransform="translate(-71.202185,-164.82878)">
      <stop
         offset="0"
         stop-color="#E93701"
         id="stop1" />
      <stop
         offset="0.25"
         stop-color="#EC3801"
         id="stop2" />
      <stop
         offset="0.5"
         stop-color="#EE3C01"
         id="stop3" />
      <stop
         offset="0.75"
         stop-color="#F03E01"
         id="stop4" />
      <stop
         offset="1"
         stop-color="#F04001"
         id="stop5" />
    </linearGradient>
    <linearGradient
       id="g2"
       gradientUnits="userSpaceOnUse"
       x1="1026.6273"
       y1="427.09033"
       x2="1144.2726"
       y2="469.90967"
       gradientTransform="translate(-857.20219,-164.82878)">
      <stop
         offset="0"
         stop-color="#DC2502"
         id="stop6" />
      <stop
         offset="0.25"
         stop-color="#E73002"
         id="stop7" />
      <stop
         offset="0.5"
         stop-color="#F13D02"
         id="stop8" />
      <stop
         offset="0.71043837"
         stop-color="#FE5105"
         id="stop9" />
      <stop
         offset="1"
         stop-color="#F24002"
         id="stop10" />
    </linearGradient>
    <linearGradient
       id="g3"
       gradientUnits="userSpaceOnUse"
       x1="1310.6447"
       y1="652.39996"
       x2="1095.9553"
       y2="652.39996"
       gradientTransform="translate(-857.20219,-164.82878)">
      <stop
         offset="0"
         stop-color="#E03001"
         id="stop11" />
      <stop
         offset="0.25"
         stop-color="#E53701"
         id="stop12" />
      <stop
         offset="0.5"
         stop-color="#E63801"
         id="stop13" />
      <stop
         offset="0.75"
         stop-color="#E83F01"
         id="stop14" />
      <stop
         offset="1"
         stop-color="#EF5504"
         id="stop15"
         style="stop-color:#f44303;stop-opacity:1;" />
    </linearGradient>
    <linearGradient
       id="g4"
       gradientUnits="userSpaceOnUse"
       x1="1255"
       y1="476.60001"
       x2="1223.2"
       y2="387.60001"
       gradientTransform="translate(-857.20219,-164.82878)">
      <stop
         offset="0"
         stop-color="#FF5B0B"
         id="stop16" />
      <stop
         offset="0.25"
         stop-color="#FF5B0B"
         id="stop17" />
      <stop
         offset="0.5"
         stop-color="#FF5B0B"
         id="stop18" />
      <stop
         offset="0.75"
         stop-color="#FF5B0B"
         id="stop19" />
      <stop
         offset="1"
         stop-color="#FF5A0A"
         id="stop20" />
    </linearGradient>
    <linearGradient
       id="g5"
       gradientUnits="userSpaceOnUse"
       x1="576.95709"
       y1="625.7124"
       x2="418.4426"
       y2="696.2876"
       gradientTransform="translate(-71.202185,-164.82878)">
      <stop
         offset="0"
         stop-color="#EB3C02"
         id="stop21" />
      <stop
         offset="0.25"
         stop-color="#EC3D02"
         id="stop22" />
      <stop
         offset="0.5"
         stop-color="#ED4001"
         id="stop23" />
      <stop
         offset="0.75"
         stop-color="#EF4502"
         id="stop24" />
      <stop
         offset="1"
         stop-color="#F34B02"
         id="stop25" />
    </linearGradient>
    <linearGradient
       id="g6"
       gradientUnits="userSpaceOnUse"
       x1="236.7"
       y1="679.59998"
       x2="281.5"
       y2="649.59998"
       gradientTransform="translate(-71.202185,-164.82878)">
      <stop
         offset="0"
         stop-color="#A31102"
         id="stop26" />
      <stop
         offset="0.25"
         stop-color="#A81301"
         id="stop27" />
      <stop
         offset="0.5"
         stop-color="#AD1501"
         id="stop28" />
      <stop
         offset="0.75"
         stop-color="#B11801"
         id="stop29" />
      <stop
         offset="1"
         stop-color="#B71C02"
         id="stop30" />
    </linearGradient>
    <linearGradient
       id="g7"
       gradientUnits="userSpaceOnUse"
       x1="998"
       y1="683.09998"
       x2="1039.2"
       y2="654.20001"
       gradientTransform="translate(-857.20219,-164.82878)">
      <stop
         offset="0"
         stop-color="#A51202"
         id="stop31" />
      <stop
         offset="0.25"
         stop-color="#A81302"
         id="stop32" />
      <stop
         offset="0.5"
         stop-color="#AC1502"
         id="stop33" />
      <stop
         offset="0.75"
         stop-color="#AF1702"
         id="stop34" />
      <stop
         offset="1"
         stop-color="#B31B03"
         id="stop35" />
    </linearGradient>
    <linearGradient
       id="g8"
       gradientUnits="userSpaceOnUse"
       x1="391.3006"
       y1="525.8183"
       x2="408.0994"
       y2="631.88171"
       gradientTransform="translate(-71.202185,-164.82878)">
      <stop
         offset="0"
         stop-color="#FE5C0B"
         id="stop36" />
      <stop
         offset="0.25"
         stop-color="#FE5B0B"
         id="stop37" />
      <stop
         offset="0.5"
         stop-color="#FF5B0B"
         id="stop38" />
      <stop
         offset="0.75"
         stop-color="#FF5B0A"
         id="stop39" />
      <stop
         offset="1"
         stop-color="#FE5D0A"
         id="stop40"
         style="stop-color:#f34a02;stop-opacity:1;" />
    </linearGradient>
    <linearGradient
       id="g9"
       gradientUnits="userSpaceOnUse"
       x1="71.431412"
       y1="480.99689"
       x2="317.60583"
       y2="599.82031"
       gradientTransform="translate(-71.202185,-164.82878)">
      <stop
         offset="0"
         stop-color="#FE9C04"
         id="stop41" />
      <stop
         offset="0.25"
         stop-color="#FFA709"
         id="stop42" />
      <stop
         offset="0.54855269"
         stop-color="#FFA80A"
         id="stop43" />
      <stop
         offset="0.92266273"
         stop-color="#FFA909"
         id="stop44" />
      <stop
         offset="1"
         stop-color="#FFA909"
         id="stop45"
         style="stop-color:#fe5b0a;stop-opacity:1;" />
    </linearGradient>
    <linearGradient
       id="g10"
       gradientUnits="userSpaceOnUse"
       x1="526.70001"
       y1="551.70001"
       x2="409.29999"
       y2="526.79999"
       gradientTransform="translate(-71.202185,-164.82878)">
      <stop
         offset="0"
         stop-color="#FEA80A"
         id="stop46" />
      <stop
         offset="0.25"
         stop-color="#FEA80B"
         id="stop47" />
      <stop
         offset="0.5"
         stop-color="#FEA90B"
         id="stop48" />
      <stop
         offset="0.75"
         stop-color="#FFA90B"
         id="stop49" />
      <stop
         offset="1"
         stop-color="#FFA90B"
         id="stop50" />
    </linearGradient>
    <linearGradient
       id="g11"
       gradientUnits="userSpaceOnUse"
       x1="1181.1"
       y1="633.09998"
       x2="1242.7"
       y2="587.29999"
       gradientTransform="translate(-857.20219,-164.82878)">
      <stop
         offset="0"
         stop-color="#FFA207"
         id="stop51" />
      <stop
         offset="0.25"
         stop-color="#FFA708"
         id="stop52" />
      <stop
         offset="0.5"
         stop-color="#FFA708"
         id="stop53" />
      <stop
         offset="0.75"
         stop-color="#FFA809"
         id="stop54" />
      <stop
         offset="1"
         stop-color="#FFA909"
         id="stop55" />
    </linearGradient>
  </defs>
  <path
     d="m 232.7408,458.3045 c -0.1917,2.06003 0.3569,9.86671 0.3569,14.26671 0.1,4.5 0.1,8.9 0.2,13.4 0.2,4.4 0.4,8.9 0.8,13.3 0.4,4.5 0.9,8.9 1.5,13.3 0.7,4.4 1.5,8.9 2.5,13.2 1.1,4.3 2.3,8.6 3.7,12.8 1.5,4.2 3.2,8.4 5.1,12.4 1.8,4 3.9,7.9 6,11.8 2.1,3.8 4.4,7.6 6.6,11.4 -4.1,-1.1 -8.5,-1.6 -12.3,-3.4 -3.8,-1.7 -7.4,-4 -10.4,-7.1 -3,-3.1 -5.4,-7.2 -7.5,-11.3 -2.2,-4.1 -3.7,-8.8 -5.2,-13.2 -1.5,-4.5 -2.6,-9.1 -3.9,-13.6 -1.4,-4.4 -2.5,-8.9 -4.1,-13.3 -1.5,-4.3 -3.1,-8.7 -4.9,-12.9 -1.9,-4.2 -4,-8.4 -6.3,-12.4 -2.2,-4.1 -4.7,-8 -7.2,-11.9 -2.5,-3.9 -5.2,-7.7 -7.9,-11.4 -2.7,-3.8 -5.5,-7.5 -8.3,-11.2 -2.8,-3.7 -5.6,-7.4 -8.4,-11.2 -2.6999,-3.7 -5.3999,-7.5 -7.9999,-11.3 -2.6,-3.8 -5.2,-7.7 -7.6,-11.7 -2.3,-4 -4.6,-8 -6.7,-12.2 -2,-4.1 -3.9,-8.4 -5.6,-12.7 -1.7,-4.3 -3.2,-8.7 -4.4,-13.2 -1.3,-4.4 -2.3,-9 -3.1,-13.5 -0.8,-4.6 -1.4,-9.2 -1.8,-13.8 -0.4,-4.6 -0.6,-9.3 -0.5,-13.9 0,-4.7 0.3,-9.3 0.8,-13.9 0.5,-4.6 1.2,-9.2 2.2,-13.7 1,-4.6 2.2,-9 3.7,-13.4 1.4,-4.4 3.1,-8.8 4.9,-13.1 1.8,-4.2 3.8,-8.4 6,-12.5 2.1,-4.1 4.4,-8.1 6.8,-12.1 2.5,-4 5,-7.8 7.6,-11.7 2.6,-3.8 5.3999,-7.6 8.0999,-11.3 2.7,-3.8 5.6,-7.4 8.3,-11.1 2.8,-3.7 5.7,-7.4 8.5,-11.1 2.7,-3.7 5.5,-7.4 8.2,-11.2 2.7,-3.8 5.4,-7.6 8,-11.4 2.6,-3.9 5.1,-7.8 7.5,-11.7 2.4,-4 4.7,-8 6.9,-12.1 2.2,-4.1 4.3,-8.3 6.2,-12.5 1.9,-4.2 3.6,-8.5 5.2,-12.9 1.6,-4.3 3,-8.7 4.3,-13.2 1.2,-4.5 2.4,-9 3.2,-13.5 0.9,-4.6 1.7,-9.2 2.2,-13.8 0.4,-4.6 0.7,-9.2 0.7,-13.9 0,-4.6 -0.3,-9.2 -0.8,-13.8 -0.5,-4.6 -1.3,-9.2 -2.1,-13.8 -0.9,-4.5 -1.9,-9 -2.8,-13.5 -1,-4.5 -2,-8.9 -3,-13.39999 3.9,2.1 8.1,3.8 11.9,6.19999 3.7,2.4 7.3,5.2 10.6,8.3 3.3,3.1 6.2,6.8 9,10.5 2.9,3.7 5.5,7.7 8,11.6 2.4,4 4.8,8 6.9,12.1 2.2,4.1 4.2,8.3 6,12.6 1.8,4.3 3.4,8.7 4.7,13.1 1.4,4.4 2.6,8.9 3.6,13.4 1.1,4.6 1.9,9.1 2.5,13.7 0.6,4.6 1.1,9.3 1.4,13.9 0.3,4.6 0.5,9.3 0.5,13.9 0,4.7 -0.1,9.3 -0.3,13.9 -0.3,4.7 -0.6,9.3 -1.2,13.9 -0.5,4.6 -1.3,9.2 -2.1,13.8 -0.9,4.5 -1.9,9.1 -3.1,13.6 -1.1,4.5 -2.4,8.9 -3.8,13.3 -1.4,4.5 -3,8.9 -4.6,13.2 -1.6,4.4 -3.4,8.7 -5.2,12.9 -1.8,4.3 -3.7,8.6 -5.7,12.7 -2,4.2 -4,8.4 -6.2,12.5 -2.1,4.1 -4.4,8.2 -6.7,12.2 -2.2,4.1 -4.6,8.1 -6.9,12.1 -2.4,4 -4.8,8 -7.1,12 -2.4,4 -4.8,8 -7,12 -2.3,4.1 -4.5,8.1 -6.7,12.3 -2.1,4.1 -4.1,8.3 -6.1,12.5 -1.9,4.2 -3.7,8.5 -5.4,12.8 -1.6,4.3 -3.2,8.7 -4.6,13.2 -1.4,4.4 -2.7,8.8 -3.8,13.3 -1.1,4.5 -2.1,9.1 -2.9,13.7 -0.8,4.7 -1.5,9.5 -1.9,14.3 -0.4,4.7 -0.9,9.9 -0.4,14.2 0.4,4.3 1.2,8.6 3.1,11.7 1.9,3.1 4.8,5.3 8.2,6.9 3.5,1.6 8.5901,-0.69598 12.0431,1.63329 z"
     fill="url(#g2)"
     id="path57"
     sodipodi:nodetypes="cccccccccccsccccccscscsccsccscscccccccccsccssccccssccccscccsccssscccccccccccccccccscccscc"
     style="fill:url(#g2)" />
  <path
     d="m 502.3655,546.31135 c -4.0976,2.39292 -13.6631,5.38111 -17.8631,7.08111 -4.2,1.7 -8.3071,2.70709 -12.8071,3.60709 -4.5,0.9 -9.2976,1.78583 -14.0976,2.08583 -4.7,0.3 -9.5,0.78583 -14.2,0.78583 -4.7,-0.1 -9.5,-0.2 -14.2,-0.5 -4.6,-0.3 -9.3,-0.7 -14,-1.5 -4.6,-0.7 -9.3,-1.6 -13.8,-2.9 -4.5,-1.2 -9,-2.7 -13.3,-4.5 -4.3,-1.9 -8.5,-4 -12.5,-6.4 -4.1,-2.3 -8,-5 -11.7,-7.9 -3.8,-2.8 -7.4,-5.9 -10.8,-9.2 -3.3,-3.2 -6.6,-6.7 -9.6,-10.3 -3,-3.6 -5.8,-7.4 -8.4,-11.3 -2.6,-3.9 -4.9,-8 -7.1,-12.1 -2.3,-4.1 -4.3,-8.4 -6.4,-12.6 -2,-4.3 -4,-8.6 -6.1,-12.8 -2.1,-4.2 -4.3,-8.4 -6.6,-12.4 -2.4,-4.1 -4.9,-8.2 -7.7,-12 -2.9,-3.8 -5.9,-7.7 -9.4,-10.9 -3.4,-3.2 -7.3,-6.4 -11.4,-8.4 -4,-2.1 -8.7,-3.6 -13,-3.8 -4.3,-0.2 -9,0.8 -12.9,2.6 -3.8,1.9 -7.4,5.2 -10.2,8.7 -2.8,3.5 -4.9,8 -6.8,12.3 -2.0765,4.22355 -4.2469,9.06981 -4.6882,13.78745 -5.3,-0.3 -10.2484,-2.81156 -15.5484,-3.11156 0.2,-4.7 -0.1634,-7.17589 0.4366,-11.77589 0.6,-4.6 1.4,-9.2 2.8,-13.6 1.4,-4.4 3.4,-8.8 5.6,-13 2.1,-4.2 4.7,-8.4 7.4,-12.2 2.7,-3.9 5.7,-7.6 9,-11 3.3,-3.3 6.9,-6.4 10.8,-9.1 3.8,-2.6 8,-4.9 12.3,-6.7 4.4,-1.8 9,-3.2 13.5,-4.3 4.6,-1 9.4,-1.7 14.1,-2 4.7,-0.4 9.5,-0.4 14.3,-0.2 4.7,0.3 9.4,0.9 14,1.8 4.6,1 9.2,2.3 13.6,3.9 4.4,1.6 8.7,3.7 12.8,5.9 4.2,2.3 8.2,4.9 12,7.7 3.8,2.7 7.5,5.7 11.1,8.9 3.5,3.1 6.9,6.4 10.2,9.8 3.2,3.5 6.3,7.1 9.2,10.8 2.8,3.8 5.5,7.7 8.1,11.6 2.6,4 5,8 7.4,12.1 2.4,4.1 4.6,8.3 6.9,12.4 2.3,4.2 4.5,8.3 6.9,12.4 2.3,4.2 4.6,8.3 7.1,12.3 2.5,4 5,8 7.7,12 2.6,3.9 5.4,7.7 8.3,11.4 2.9,3.7 6,7.3 9.3,10.7 3.2,3.4 6.7,6.7 10.3,9.7 3.6,3.1 7.5,5.9 11.3,8.6 3.8,2.7 7.7,5.2 11.6,7.8 5.2669,2.59764 12.5843,5.09764 17.0678,5.74014 z"
     fill="url(#g11)"
     id="path59"
     sodipodi:nodetypes="csscccccccccssccsccccscscccsscccccccccsccccccsccscsccscc"
     style="fill:url(#g11)" />
  <path
     d="m 492.8178,545.51484 c 4.7719,0.70118 5.5544,0.68968 9.5448,0.79856 -3.1051,1.7994 -14.0649,6.15781 -18.4649,7.55781 -4.4,1.4 -7.826,2.30945 -12.326,3.20945 -4.6,0.9 -10.374,1.79055 -15.074,2.19055 -4.6,0.4 -9.4,0.5 -14.1,0.5 -4.7,0 -9.4,-0.1 -14,-0.4 -4.7,-0.4 -9.4,-0.8 -14,-1.6 -4.6,-0.7 -9.3,-1.7 -13.8,-3 -4.4,-1.3 -8.9,-2.8 -13.2,-4.6 -4.3,-1.9 -8.5,-4.1 -12.5,-6.4 -4,-2.4 -7.9,-5.1 -11.6,-8 -3.7,-2.8 -7.3,-6 -10.6,-9.2 -3.4,-3.3 -6.6,-6.7 -9.6,-10.3 -2.9,-3.6 -5.7,-7.4 -8.3,-11.3 -2.5,-3.9 -4.8,-8 -7.1,-12.1 -2.2,-4.2 -4.2,-8.4 -6.3,-12.6 -2,-4.3 -4,-8.5 -6.1,-12.7 -2.1,-4.2 -4.2,-8.4 -6.6,-12.4 -2.4,-4.1 -4.9,-8.1 -7.7,-11.9 -2.9,-3.8 -5.9,-7.7 -9.4,-10.9 -3.4,-3.2 -7.3,-6.3 -11.4,-8.4 -4,-2 -8.7,-3.5 -13,-3.6 -4.3,-0.2 -8.9,0.8 -12.8,2.7 -3.8,1.9 -7.3,5.2 -10.2,8.7 -2.8,3.5 -4.9,7.9 -6.7,12.3 -1.9,4.3 -4.22,9.68373 -4.7568,14.264 -1.8483,2.75029 -12.262,-1.25143 -15.5629,-3.49049 0.4,-5.3 0.2197,-8.77351 1.1197,-13.87351 1,-5.2 2.4,-10.2 4.3,-15.2 1.9,-5 6.7205,-11.7217 8.6373,-13.88347 2.4087,-2.60268 6.5627,-5.41653 10.7627,-7.31653 4.2,-1.9 8.5,-3.7 12.9,-4.7 4.4,-1 9,-1.5 13.5,-1.3 4.6,0.1 9.2,0.9 13.6,2.2 4.4,1.2 8.7,3.1 12.8,5.3 4.1,2.1 8,4.7 11.7,7.4 3.7,2.8 7.2,5.9 10.5,9.1 3.3,3.2 6.4,6.7 9.4,10.2 3,3.4 5.9,7.1 8.8,10.7 2.8,3.6 5.6,7.3 8.5,10.9 3,3.6 5.9,7.2 8.9,10.6 3.1,3.5 6.2,6.9 9.4,10.2 3.3,3.3 6.6,6.5 10,9.6 3.4,3.1 6.9,6.1 10.5,9 3.6,3 7.3,5.8 11,8.5 3.7,2.7 7.6,5.2 11.5,7.7 3.8,2.5 7.8,4.9 11.8,7.3 3.9,2.4 7.9,4.7 12,6.9 4,2.2 8.1,4.5 12.3,6.5 4.1,2 8.3,4 12.6,5.6 4.3,1.6 8.7,3.1 13.2,4.2 4.4,1.1 9.2109,2.25227 13.7261,3.06534 4.6283,0.7696 6.3844,1.10084 12.194,1.97829 z"
     fill="url(#g3)"
     id="path62"
     sodipodi:nodetypes="ccsccscccccccccccscccccccccccscssccccscccccscsccccsccc"
     style="fill:url(#g3)" />
  <path
     d="m 121.9978,397.37121 c 2.1,4 4.2,8.1 6.4,12.2 2.1,4.1 4.3,8.3 6.6,12.4 2.3,4.1 4.6,8.2 7.2,12.2 2.6,4 5.4,7.9 8.3,11.6 2.9,3.8 6,7.4 9.1,11 3.1,3.6 6.4,7 9.5,10.6 3.1999,3.5 6.4999,7 9.5999,10.6 3.1,3.6 6.2,7.2 9.1,10.9 2.9,3.8 5.7,7.6 8.3,11.6 2.5,4 4.8,8.1 6.9,12.4 2.1,4.2 3.9,8.6 5.7,13 1.9,4.4 3.4,9 5.3,13.3 1.9,4.4 3.8,8.7 6.1,12.8 2.3,4 5,7.9 7.9,11.6 2.8,3.7 6.1,7.1 9.2,10.7 -4.5,0.4 -9,1.1 -13.5,1.2 -4.6,0.1 -9.1,-0.1 -13.7,-0.8 -4.5,-0.7 -9.1,-2 -13.5,-3.4 -4.4,-1.5 -8.8,-3.3 -13,-5.4 -4.3,-2 -8.4,-4.2 -12.2999,-6.7 -4,-2.5 -7.8,-5.2 -11.4,-8.2 -3.6,-2.9 -7,-6.2 -10.2,-9.6 -3.1,-3.4 -6.1,-7 -8.8,-10.8 -2.7,-3.8 -5.2,-7.8 -7.4,-11.9 -2.3,-4.1 -4.3,-8.3 -6.1,-12.6 -1.9,-4.3 -3.5,-8.7 -4.9,-13.1 -1.4,-4.5 -2.6,-9 -3.5,-13.6 -1,-4.5 -1.6,-9.2 -2.2,-13.8 -0.5,-4.6 -0.8,-9.3 -1.1,-14 -0.3,-4.7 -0.5,-9.4 -0.6,-14.1 0,-4.7 -0.1,-9.4 0.3,-14 0.4,-4.5 1.2,-9 2.3,-13.4 1.1,-4.3 2.9,-8.5 4.4,-12.7 z"
     fill="url(#g7)"
     id="path66"
     style="fill:url(#g7)" />
  <path
     d="m 493.8977,135.67121 c 1.2,4.2 2.7,8.4 3.6,12.8 0.9,4.4 1.5,8.9 1.8,13.5 0.2,4.5 -0.1,9.2 -0.5,13.9 -0.3,4.7 -1.1,9.4 -1.9,14 -0.8,4.6 -1.8,9.2 -3,13.7 -1.1,4.5 -2.5,8.9 -4,13.3 -1.5,4.4 -3.3,8.8 -5.2,13.1 -1.9,4.2 -3.9,8.4 -6.2,12.5 -2.2,4.1 -4.7,8 -7.2,11.9 -2.6,3.9 -5.4,7.7 -8.2,11.4 -2.8,3.7 -5.8,7.3 -8.9,10.8 -3.1,3.5 -6.3,6.9 -9.7,10.1 -3.3,3.3 -6.8,6.4 -10.4,9.4 -3.5,3 -7.3,5.8 -11.1,8.4 -3.8,2.7 -7.8,5.2 -11.8,7.6 -4,2.3 -8.1,4.5 -12.3,6.5 -4.2,2.1 -8.5,4 -12.8,5.7 -4.4,1.7 -8.8,3.3 -13.2,4.7 -4.4,1.5 -8.9,2.8 -13.4,4 -4.5,1.3 -9,2.4 -13.6,3.5 -4.5,1.1 -9.1,2.1 -13.6,3.1 -4.6,1 -9.1,1.9 -13.7,3 -4.5,1 -9.1,2 -13.6,3.2 -4.5,1.2 -9,2.5 -13.5,3.9 -4.4,1.5 -8.8,3.1 -13,5 -4.3,1.9 -8.4,4.1 -12.5,6.3 -4,2.3 -7.9,4.8 -11.7,7.3 -3.9,2.4 -7.6,5.1 -11.4,7.6 1,-4.4 1.8,-8.9 3.1,-13.2 1.3,-4.4 2.8,-8.7 4.7,-12.9 1.9,-4.2 4.1,-8.3 6.5,-12.3 2.3,-4 5,-7.8 7.6,-11.7 2.7,-3.8 5.5,-7.5 8.4,-11.1 2.8,-3.7 5.8,-7.3 8.9,-10.7 3,-3.5 6.2,-6.9 9.5,-10.2 3.2,-3.3 6.6,-6.6 10,-9.7 3.5,-3 7.1,-6 10.7,-8.9 3.7,-2.8 7.5,-5.5 11.3,-8.1 3.9,-2.6 7.8,-5 11.8,-7.3 4,-2.4 8.1,-4.6 12.2,-6.7 4.2,-2.2 8.4,-4.2 12.5,-6.1 4.2,-2 8.5,-3.9 12.7,-5.8 4.3,-1.8 8.6,-3.6 12.8,-5.5 4.3,-1.8 8.6,-3.6 12.8,-5.5 4.3,-1.9 8.5,-3.8 12.7,-5.8 4.2,-2 8.3,-4.1 12.4,-6.4 4,-2.2 8,-4.6 11.9,-7.1 3.9,-2.5 7.8,-5.2 11.4,-8 3.7,-2.8 7.3,-5.8 10.6,-9 3.4,-3.2 6.6,-6.6 9.5,-10.1 3,-3.6 5.8,-7.4 8.3,-11.2 2.5,-3.9 4.8,-8 7,-12 2.1,-4.1 4.1,-8.3 6,-12.5 2,-4.1 3.8,-8.3 5.7,-12.4 z"
     fill="url(#g4)"
     id="path60"
     style="fill:url(#g4)" />
</svg>
